<svg width="33" height="32" viewBox="0 0 33 32" fill="none" xmlns="http://www.w3.org/2000/svg">
<path d="M16.4051 0C7.34129 0 2.3944e-06 7.34128 2.3944e-06 16.4051C-0.0018583 19.849 1.08079 23.206 3.09436 25.9999C5.10792 28.7938 7.95015 30.8827 11.2178 31.9703C12.0381 32.113 12.3448 31.6208 12.3448 31.1894C12.3448 30.8006 12.3235 29.5095 12.3235 28.1347C8.20255 28.8943 7.13622 27.1308 6.80812 26.2072C6.62274 25.7347 5.82381 24.2796 5.1266 23.8891C4.55242 23.5823 3.73216 22.8228 5.10527 22.8031C6.39799 22.7818 7.31996 23.9925 7.62838 24.4846C9.10483 26.9651 11.4639 26.2678 12.4055 25.838C12.5499 24.7717 12.9797 24.0548 13.4522 23.6447C9.80205 23.2345 5.98786 21.8188 5.98786 15.5438C5.98786 13.759 6.62274 12.2841 7.66939 11.1341C7.50534 10.724 6.93116 9.04249 7.83344 6.78679C7.83344 6.78679 9.20654 6.35698 12.3448 8.46995C13.6803 8.0993 15.0602 7.91274 16.4461 7.91546C17.8406 7.91546 19.235 8.0992 20.5474 8.46831C23.684 6.33565 25.0588 6.78843 25.0588 6.78843C25.9611 9.04413 25.3869 10.7257 25.2228 11.1358C26.2679 12.2841 26.9044 13.7393 26.9044 15.5438C26.9044 21.8401 23.0705 23.2345 19.4204 23.6447C20.0142 24.1565 20.5277 25.1408 20.5277 26.6796C20.5277 28.873 20.5064 30.6365 20.5064 31.191C20.5064 31.6208 20.8148 32.1327 21.6351 31.9686C24.8915 30.8691 27.7212 28.7762 29.7259 25.9843C31.7306 23.1924 32.8093 19.8422 32.8102 16.4051C32.8102 7.34128 25.4689 0 16.4051 0Z" fill="#EBEBEB"/>
</svg>
