<svg width="34" height="32" viewBox="0 0 34 32" fill="none" xmlns="http://www.w3.org/2000/svg">
<path d="M7.11072 3.55714C7.11025 4.50008 6.73521 5.40421 6.06812 6.07063C5.40103 6.73706 4.49652 7.11119 3.55358 7.11072C2.61064 7.11025 1.70651 6.73521 1.04008 6.06812C0.373658 5.40103 -0.000471025 4.49652 4.45062e-07 3.55358C0.000471915 2.61064 0.375505 1.70651 1.0426 1.04008C1.70969 0.373658 2.6142 -0.000471025 3.55714 4.45062e-07C4.50008 0.000471915 5.40421 0.375505 6.07063 1.0426C6.73706 1.70969 7.11119 2.6142 7.11072 3.55714ZM7.21738 9.74346H0.106661V32H7.21738V9.74346ZM18.4523 9.74346H11.3771V32H18.3812V20.3207C18.3812 13.8143 26.8607 13.2099 26.8607 20.3207V32H33.8826V17.903C33.8826 6.93473 21.3322 7.34359 18.3812 12.73L18.4523 9.74346Z" fill="#EBEBEB"/>
</svg>
